<?xml version="1.0" standalone="no"?>
<!DOCTYPE svg PUBLIC "-//W3C//DTD SVG 20010904//EN" "http://www.w3.org/TR/2001/REC-SVG-20010904/DTD/svg10.dtd">
<svg version="1.0" xmlns="http://www.w3.org/2000/svg" width="150.000000pt" height="150.000000pt" viewBox="0 0 150.000000 150.000000" preserveAspectRatio="xMidYMid meet">
            <title>Bootstrap</title>
            <symbol id="bootstrap" viewBox="0 0 118 94">
    <g transform="translate(0.000000,150.000000) scale(0.100000,-0.100000)" fill="#000000" stroke="none">
        <path d="M645 1494 c-164 -27 -323 -111 -437 -231 -43 -45 -121 -165 -147
-225 -56 -134 -73 -344 -36 -478 40 -149 141 -307 253 -396 67 -53 214 -126
292 -145 72 -18 289 -18 360 0 81 20 207 82 275 135 274 214 369 600 222 906
-98 205 -260 346 -472 412 -60 18 -248 32 -310 22z m242 -24 c144 -24 321
-129 421 -251 59 -72 125 -201 148 -290 24 -90 24 -282 -1 -369 -25 -90 -95
-225 -146 -285 -102 -119 -235 -204 -379 -242 -99 -27 -282 -24 -383 6 -270
78 -476 318 -517 600 -12 77 -9 193 6 258 70 314 321 543 636 582 69 8 120 6
215 -9z" />
        <path d="M625 1445 c-33 -6 -67 -14 -75 -17 -8 -3 -37 -14 -63 -23 -73 -26
-188 -108 -254 -179 -60 -66 -119 -165 -148 -251 -20 -60 -44 -200 -39 -235 1
-14 5 -53 9 -87 31 -313 309 -585 623 -610 71 -6 72 -5 73 18 2 39 -3 264 -5
266 -1 2 -27 7 -57 13 -123 23 -257 123 -308 230 -24 50 -26 66 -26 175 0 96
4 128 19 160 l19 40 12 -85 c7 -47 21 -150 31 -229 15 -121 21 -145 36 -149
10 -2 18 -11 18 -18 0 -11 26 -14 128 -14 89 0 132 -4 140 -12 10 -10 14 -10
20 -1 5 8 47 13 127 15 l120 3 12 75 c16 106 31 204 43 285 6 39 13 78 16 88
4 11 0 17 -11 17 -9 0 -19 10 -22 21 -6 22 -9 22 -152 16 -82 -3 -158 -11
-173 -18 -22 -10 -31 -9 -44 2 -13 10 -49 13 -156 11 l-140 -3 18 31 c47 78
157 150 263 170 l71 13 0 148 0 148 -32 -1 c-18 -1 -60 -7 -93 -13z m83 -91
c0 -32 -24 -42 -43 -18 -20 27 -19 32 13 37 15 2 28 5 28 6 1 0 2 -11 2 -25z
m-148 -51 c0 -10 6 -13 16 -9 24 9 38 -4 18 -19 -22 -16 -11 -48 13 -41 10 2
34 8 53 12 31 6 33 5 21 -9 -7 -9 -34 -19 -59 -23 -26 -4 -60 -17 -77 -29 -16
-12 -40 -22 -52 -21 -27 0 -19 16 8 16 10 0 19 6 19 14 0 7 9 16 21 19 27 7
19 32 -10 31 -24 -1 -29 21 -6 30 11 4 13 14 8 38 -6 30 -5 32 10 19 9 -7 17
-20 17 -28z m-163 -87 c-8 -19 -18 -20 -41 -3 -17 13 -17 14 -1 31 16 15 20
16 33 2 8 -8 12 -22 9 -30z m13 -111 c0 -8 -15 -28 -34 -46 -19 -17 -37 -41
-40 -55 -4 -13 -11 -24 -16 -24 -6 0 -10 -6 -10 -14 0 -15 -28 -42 -36 -34 -3
3 2 12 10 20 8 8 18 32 21 52 6 29 4 36 -8 36 -9 0 -19 -5 -23 -11 -4 -8 -9
-8 -17 0 -8 8 -8 14 1 23 10 10 8 16 -10 30 -29 22 -16 36 15 15 21 -14 24
-14 34 1 9 14 13 15 24 5 10 -10 10 -13 1 -13 -7 0 -12 -7 -12 -15 0 -25 34
-17 60 15 28 33 40 37 40 15z m-232 -168 c16 -12 -2 -37 -28 -37 -16 0 -18 10
-11 53 1 8 15 2 39 -16z m449 -94 c24 -16 53 -67 53 -93 0 -23 -44 -5 -50 20
-3 14 -18 31 -33 38 -38 18 -78 -2 -90 -45 -18 -63 45 -114 98 -79 23 15 25
15 35 -3 14 -27 -21 -51 -73 -51 -31 0 -46 7 -74 35 -33 33 -35 38 -31 87 4
42 11 57 37 80 37 33 88 37 128 11z m279 -34 l20 -41 18 41 c15 31 25 41 43
41 21 0 23 -4 23 -50 0 -27 -2 -50 -4 -50 -2 0 -11 -3 -20 -6 -11 -4 -16 0
-16 12 -1 12 -10 2 -24 -24 l-22 -44 -19 42 c-12 26 -21 37 -24 29 -8 -19 -32
-23 -42 -7 -5 7 -9 32 -9 56 0 39 2 42 28 42 23 0 32 -7 48 -41z m-651 -27
c-7 -57 -7 -56 0 -114 4 -25 2 -49 -3 -52 -6 -3 -13 16 -17 43 -8 60 -45 84
-45 30 0 -12 -5 -16 -15 -13 -10 4 -13 13 -10 26 6 16 3 18 -18 13 -14 -4 -28
-2 -31 3 -7 12 29 26 44 17 6 -4 9 3 7 16 -1 12 4 24 11 26 7 3 12 -4 12 -17
0 -15 5 -20 18 -18 12 2 20 18 26 50 12 60 28 52 21 -10z m438 -82 c6 -16 17
-30 24 -30 11 0 10 7 -2 30 -15 29 -15 30 9 30 18 0 30 -9 41 -30 9 -16 20
-30 26 -30 5 0 3 14 -6 30 -15 29 -15 30 9 30 18 0 30 -9 40 -28 8 -16 22 -34
30 -41 30 -25 15 -31 -83 -31 l-99 0 -26 46 c-14 26 -26 48 -26 50 0 2 12 4
26 4 19 0 28 -7 37 -30z m207 22 c0 -5 6 -17 14 -27 14 -19 15 -19 27 8 8 18
20 27 36 27 12 0 23 -3 23 -7 -1 -5 -20 -44 -43 -88 -35 -67 -46 -81 -69 -83
-33 -4 -34 -2 -9 39 l20 32 -25 48 c-30 59 -30 59 1 59 14 0 25 -4 25 -8z
m-721 -187 c-15 -16 -54 -11 -44 5 3 5 0 12 -7 16 -9 6 -5 10 12 15 15 4 31 1
40 -7 12 -12 12 -16 -1 -29z m143 -62 c12 -25 37 -58 55 -74 18 -15 33 -36 32
-46 0 -15 -2 -15 -16 5 -8 12 -20 22 -26 22 -5 0 -15 7 -21 15 -8 10 -16 12
-26 5 -12 -8 -13 -13 -2 -30 10 -17 10 -20 -2 -20 -8 0 -19 7 -24 16 -8 14
-10 14 -21 0 -8 -9 -23 -16 -35 -16 -20 1 -20 2 6 24 19 17 23 27 15 35 -8 8
-8 14 1 23 9 9 12 9 12 0 0 -7 9 -12 20 -12 13 0 20 7 20 20 0 11 -5 20 -11
20 -6 0 -9 6 -6 14 3 8 -1 20 -9 26 -18 16 -18 31 1 24 8 -3 25 -26 37 -51z
m188 -178 c7 -8 18 -15 26 -15 7 0 17 -6 21 -12 7 -12 31 -18 75 -19 9 0 22
-7 29 -15 10 -12 4 -13 -39 -9 -55 5 -77 -9 -48 -31 20 -14 6 -27 -18 -18 -11
4 -16 0 -16 -14 0 -21 -17 -39 -27 -28 -4 3 -1 17 5 30 9 20 8 25 -9 29 -10 3
-19 11 -19 17 0 8 8 10 21 7 33 -9 36 22 4 49 -16 13 -35 24 -44 24 -14 0 -14
2 -1 10 20 13 25 12 40 -5z m-120 -39 c0 -33 -12 -39 -39 -20 -21 15 -21 17
-4 30 27 20 43 17 43 -10z m305 -117 c7 -21 -16 -49 -23 -29 -2 5 -10 6 -19 3
-9 -4 -14 -2 -11 3 3 5 8 17 11 27 9 24 34 21 42 -4z" />
        <path d="M851 1299 c-12 -78 -19 -145 -14 -149 4 -4 25 -11 46 -14 32 -6 37
-4 37 12 0 10 4 22 9 27 5 6 18 35 29 65 11 30 30 75 41 100 11 25 21 50 21
57 0 13 -82 43 -120 43 -26 0 -26 -1 -49 -141z" />
        <path d="M1075 1259 c-27 -44 -62 -99 -77 -124 l-27 -44 33 -25 33 -25 107
108 107 107 -23 20 c-32 29 -84 64 -95 64 -4 0 -30 -37 -58 -81z" />
        <path d="M1268 1132 c-26 -21 -79 -61 -118 -90 -73 -56 -74 -57 -38 -105 15
-20 16 -19 196 64 35 16 68 29 73 29 5 0 9 6 9 13 0 14 -55 113 -67 120 -5 3
-29 -11 -55 -31z" />
        <path d="M1283 901 c-67 -20 -125 -40 -128 -43 -4 -4 -4 -25 0 -48 l7 -40 46
5 c26 2 91 7 145 11 94 6 97 7 97 29 0 45 -22 125 -33 124 -7 -1 -67 -18 -134
-38z" />
        <path d="M1156 679 c-4 -22 -4 -44 -1 -49 3 -5 31 -17 63 -26 31 -9 88 -27
125 -40 38 -13 70 -24 72 -24 5 0 21 59 30 112 l7 36 -44 6 c-23 3 -86 8 -138
11 -52 4 -97 8 -101 11 -4 2 -9 -15 -13 -37z" />
        <path d="M1096 525 l-26 -33 109 -91 c60 -50 111 -91 114 -91 8 0 77 107 77
119 0 6 -46 34 -101 62 -151 75 -143 74 -173 34z" />
        <path d="M998 421 l-36 -27 54 -94 c29 -52 58 -105 63 -117 5 -11 15 -24 21
-28 16 -10 121 74 112 90 -4 8 -34 42 -67 77 -33 35 -72 77 -86 94 l-26 31
-35 -26z" />
        <path d="M853 348 c-20 -7 -33 -18 -33 -27 1 -30 37 -238 44 -249 10 -17 136
20 136 41 0 23 -95 247 -105 246 -5 -1 -25 -6 -42 -11z" />
    </g>
</symbol>
</svg>