<?xml version="1.0" standalone="no"?>
<!DOCTYPE svg PUBLIC "-//W3C//DTD SVG 20010904//EN" "http://www.w3.org/TR/2001/REC-SVG-20010904/DTD/svg10.dtd">
<svg version="1.0" xmlns="http://www.w3.org/2000/svg" width="305.000000pt" height="306.000000pt" viewBox="0 0 305.000000 306.000000" preserveAspectRatio="xMidYMid meet">

    <g transform="translate(0.000000,306.000000) scale(0.100000,-0.100000)" fill="#000000" stroke="none">
        <path d="M1258 3035 c-124 -22 -228 -53 -313 -95 -44 -21 -105 -49 -136 -63
-111 -48 -336 -237 -464 -388 -37 -44 -122 -183 -172 -280 -50 -97 -123 -299
-123 -341 0 -13 -7 -54 -15 -93 -18 -88 -22 -433 -5 -525 14 -76 33 -153 50
-195 6 -16 11 -31 11 -33 -1 -1 5 -15 12 -30 8 -15 17 -40 21 -57 4 -16 35
-80 68 -142 54 -100 82 -140 201 -290 48 -59 186 -184 254 -228 32 -21 76 -50
99 -65 60 -40 198 -104 289 -135 162 -54 250 -66 487 -65 231 0 308 10 454 54
133 41 323 129 350 162 6 8 15 14 19 14 8 0 85 54 132 92 65 53 198 187 237
238 94 122 206 327 206 375 0 13 5 25 10 27 16 5 65 147 78 228 7 41 17 100
22 131 27 150 1 501 -43 585 -8 16 -18 48 -22 69 -4 22 -15 52 -26 67 -10 15
-19 38 -19 52 0 24 -28 95 -41 106 -15 12 -59 84 -59 96 0 14 -54 106 -85 143
-83 101 -226 251 -240 251 -5 0 -29 20 -53 44 -24 24 -55 49 -70 57 -15 7 -40
24 -55 36 -16 13 -37 23 -46 23 -10 0 -36 12 -57 27 -21 14 -58 32 -82 39 -24
7 -55 22 -70 32 -15 11 -58 27 -97 36 -38 10 -97 24 -130 32 -87 21 -476 27
-577 9z m517 -30 c125 -23 253 -65 391 -130 100 -47 235 -132 269 -170 6 -6
35 -31 66 -56 90 -73 234 -244 280 -334 23 -44 50 -92 60 -107 11 -14 19 -29
19 -33 0 -3 12 -32 26 -63 15 -31 27 -61 28 -67 2 -5 14 -48 29 -95 42 -136
59 -258 59 -430 1 -296 -52 -485 -219 -786 -61 -110 -149 -218 -253 -311 -30
-26 -61 -54 -68 -61 -8 -7 -30 -25 -50 -40 -21 -15 -39 -29 -42 -32 -39 -39
-197 -124 -319 -171 -96 -37 -284 -86 -341 -88 -291 -14 -298 -14 -481 19 -88
15 -266 77 -361 125 -199 100 -437 306 -555 480 -97 144 -204 381 -229 510 -2
11 -11 56 -20 100 -27 136 -27 378 1 505 3 14 8 43 11 65 22 153 183 498 295
630 76 90 200 206 299 279 312 232 727 330 1105 261z" />
        <path d="M1459 2976 c-2 -3 -29 -6 -59 -7 -30 -1 -84 -8 -119 -15 -36 -8 -80
-17 -98 -19 -18 -2 -42 -9 -54 -15 -11 -6 -44 -18 -72 -27 -110 -32 -296 -133
-381 -208 -6 -5 -29 -23 -51 -40 -45 -33 -215 -203 -215 -215 0 -4 -9 -18 -21
-31 -27 -30 -79 -106 -79 -114 0 -3 -17 -36 -38 -73 -46 -83 -106 -227 -127
-307 -8 -33 -25 -125 -36 -205 -20 -136 -21 -207 -5 -335 2 -16 7 -55 11 -85
9 -71 61 -261 86 -314 71 -148 155 -293 189 -326 3 -3 17 -21 31 -40 48 -63
146 -156 279 -261 76 -61 193 -123 338 -179 53 -20 76 -26 202 -56 115 -27
309 -37 295 -15 -3 5 -5 140 -5 299 l-1 289 -92 11 c-228 29 -413 136 -567
328 -65 82 -122 191 -145 279 -21 81 -27 300 -10 392 14 80 59 206 79 222 13
11 14 5 41 -244 3 -22 12 -92 21 -155 19 -140 43 -328 54 -432 4 -42 11 -81
15 -87 3 -6 19 -11 35 -11 21 0 31 -6 36 -22 5 -13 7 -27 6 -31 -1 -4 100 -7
225 -6 264 1 295 -3 314 -38 l14 -25 27 33 28 33 231 3 c233 2 267 7 255 40
-3 7 0 39 6 70 6 32 12 72 13 88 2 17 8 55 14 85 6 30 13 71 15 90 14 111 69
471 76 505 14 60 12 75 -9 75 -38 0 -51 12 -51 44 l0 31 -132 -2 c-73 -1 -215
-4 -316 -8 -175 -5 -185 -7 -222 -31 l-39 -26 -43 30 -43 30 -272 -3 c-182 -2
-273 0 -273 7 0 13 64 101 110 152 38 42 190 151 257 185 36 18 93 34 198 57
11 3 48 7 83 11 47 4 62 9 58 19 -3 8 -6 144 -6 304 -1 235 -4 290 -15 290 -7
0 -20 2 -27 5 -8 3 -16 4 -19 1z m-10 -178 c-7 -13 -12 -38 -10 -56 1 -25 -3
-34 -22 -43 -27 -12 -73 4 -62 21 3 6 -6 22 -20 36 -21 21 -24 29 -14 35 8 5
20 2 30 -7 15 -13 17 -12 23 8 6 22 7 22 17 5 10 -18 12 -18 30 2 26 28 43 27
28 -1z m-335 -90 c7 -13 17 -41 21 -63 6 -33 9 -37 18 -24 20 26 48 31 68 13
23 -21 25 -36 4 -27 -18 6 -55 -23 -55 -44 0 -7 9 -22 21 -34 20 -20 56 -19
71 4 5 8 14 7 32 -2 22 -12 28 -11 50 6 17 14 34 19 53 15 25 -5 26 -6 9 -16
-11 -6 -26 -19 -35 -28 -9 -11 -30 -18 -49 -18 -18 0 -43 -5 -55 -12 -12 -6
-38 -11 -57 -9 -27 1 -42 -5 -60 -24 -13 -14 -29 -25 -35 -25 -7 0 -29 -14
-50 -30 -28 -23 -41 -27 -51 -19 -7 6 -22 8 -34 4 -11 -3 -20 -2 -20 3 0 18
33 36 61 34 23 -3 29 1 35 22 5 22 24 33 37 24 11 -8 37 29 37 53 0 38 -34 58
-59 35 -23 -21 -28 -20 -34 4 -7 26 17 50 49 50 28 0 29 2 10 38 -12 24 -20
63 -17 85 2 15 21 6 35 -15z m-310 -191 c17 -24 16 -27 -3 -46 -26 -26 -42
-26 -74 -1 -14 11 -30 20 -36 20 -6 0 -11 5 -11 10 0 6 9 10 20 10 13 0 20 7
20 20 0 12 5 17 13 14 8 -3 19 7 27 23 l13 28 7 -26 c4 -14 15 -37 24 -52z
m29 -259 c-8 -45 -21 -68 -37 -68 -8 0 -21 -11 -30 -25 -24 -36 -57 -64 -70
-59 -8 3 -10 -8 -8 -35 3 -33 0 -42 -22 -56 -17 -12 -26 -26 -26 -44 0 -21
-10 -34 -40 -54 l-40 -26 0 24 c0 15 10 31 25 41 26 17 35 54 13 54 -6 0 2 14
20 31 30 30 31 32 17 60 -22 41 -62 40 -77 -2 -11 -31 -11 -31 -30 -11 -24 23
-17 58 13 67 25 8 12 27 -31 45 -17 7 -30 19 -30 26 0 8 -4 14 -10 14 -5 0
-10 6 -10 14 0 27 72 1 101 -37 19 -24 39 -16 32 13 -7 26 32 42 65 27 l23
-11 -25 -13 c-46 -24 -29 -74 25 -76 30 -2 34 1 39 28 4 23 11 30 29 30 15 0
28 10 38 30 28 53 55 61 46 13z m-501 -321 c67 -30 60 -97 -10 -97 -21 0 -43
-5 -50 -12 -19 -19 -27 0 -9 20 19 21 22 42 7 42 -5 0 -10 5 -10 10 0 6 7 10
15 10 12 0 14 7 9 26 -4 15 -3 25 2 22 5 -2 26 -12 46 -21z m873 -188 c65 -18
112 -58 145 -123 17 -33 30 -72 30 -88 0 -26 -3 -28 -39 -28 -40 0 -51 11 -51
52 0 11 -17 38 -39 59 -34 34 -44 39 -86 39 -59 0 -101 -24 -126 -72 -36 -69
-20 -140 41 -192 50 -41 121 -35 177 16 l22 20 20 -40 20 -39 -22 -21 c-83
-78 -234 -65 -305 26 -69 88 -71 221 -6 309 27 36 83 73 128 83 44 11 47 11
91 -1z m-671 -96 c3 -3 0 -15 -6 -27 -7 -11 -12 -43 -13 -69 0 -33 -5 -52 -16
-61 -15 -11 -15 -14 3 -36 11 -14 18 -36 17 -54 -1 -17 3 -42 8 -56 12 -28 11
-33 -6 -74 -11 -27 -13 -28 -28 -13 -14 14 -15 20 -4 44 11 25 10 29 -10 46
-18 14 -20 22 -12 40 18 40 -39 84 -72 57 -18 -15 -20 -66 -2 -74 6 -2 2 -4
-11 -2 -13 1 -32 10 -43 19 -18 16 -19 19 -3 48 15 30 15 31 -8 23 -44 -14
-108 -4 -108 17 0 14 70 29 95 19 25 -9 45 3 25 15 -5 3 -10 17 -10 31 0 17 8
27 26 34 14 6 26 10 27 10 2 0 1 -18 -1 -40 -4 -40 -4 -40 30 -40 19 0 39 5
46 12 15 15 16 55 1 63 -6 5 -2 13 11 22 18 13 21 22 15 49 -3 19 -1 43 6 55
11 21 12 21 24 -15 7 -21 16 -40 19 -43z m1310 -6 l38 -82 41 83 41 82 48 0
48 0 0 -105 0 -105 -49 0 c-46 0 -48 1 -43 25 8 46 -8 26 -47 -57 l-39 -83
-41 85 c-31 65 -41 78 -41 58 0 -27 -2 -28 -50 -28 l-50 0 0 105 0 105 53 0
52 -1 39 -82z m-433 -222 c22 -47 36 -65 50 -65 24 0 24 -2 -6 66 -14 31 -25
58 -25 60 0 2 21 4 48 4 l47 0 30 -65 c24 -52 35 -65 53 -65 l22 0 -30 60
c-16 33 -30 62 -30 65 0 3 23 5 51 3 l51 -3 26 -62 c18 -45 31 -63 44 -63 17
0 61 -73 50 -84 -12 -12 -367 -6 -392 7 -23 11 -109 163 -110 195 0 8 16 12
46 12 l45 0 30 -65z m438 10 c13 -30 26 -55 30 -55 4 0 20 25 36 55 30 55 30
55 77 55 l48 0 -88 -177 c-48 -98 -87 -179 -87 -179 0 -1 -24 -4 -53 -6 -52
-5 -53 -5 -47 19 3 13 19 46 36 72 l30 49 -54 111 -54 111 51 0 51 0 24 -55z
m-1483 -282 c21 -28 17 -41 -27 -83 l-41 -39 4 30 c4 23 1 29 -14 29 -10 0
-18 5 -18 10 0 6 6 10 13 10 7 0 8 3 2 8 -5 4 -17 16 -25 26 -14 17 -13 18 5
13 11 -4 27 -2 35 3 23 15 51 12 66 -7z m228 -94 c22 -13 37 -30 41 -49 3 -16
13 -34 20 -40 8 -6 19 -28 26 -47 10 -32 77 -108 127 -144 11 -8 22 -29 26
-46 5 -28 3 -33 -15 -33 -11 0 -22 8 -25 18 -11 36 -22 47 -45 47 -18 0 -26 8
-33 33 -9 34 -19 38 -60 22 -20 -7 -26 -17 -26 -39 0 -23 5 -30 28 -36 l27 -8
-30 -12 c-35 -15 -64 -4 -72 26 -7 24 -18 24 -35 1 -7 -11 -23 -24 -35 -30
-23 -12 -63 -16 -63 -6 0 13 68 75 85 78 10 1 21 9 23 16 3 7 1 10 -4 7 -5 -3
-18 1 -29 9 -15 11 -17 19 -9 41 12 36 30 40 38 8 8 -31 45 -34 70 -6 21 23
14 56 -14 71 -15 8 -17 15 -10 34 7 20 4 27 -21 45 -16 12 -29 30 -29 41 0 25
1 25 44 -1z m436 -454 c7 -8 32 -24 56 -35 24 -10 44 -26 44 -34 0 -22 17 -28
40 -16 15 8 29 7 57 -5 21 -9 47 -14 59 -11 15 4 31 -3 53 -24 17 -17 31 -32
31 -35 0 -12 -50 -4 -64 10 -19 19 -30 19 -46 0 -12 -14 -15 -14 -31 1 -26 23
-52 24 -71 1 -30 -34 -16 -67 30 -67 23 0 24 -1 10 -22 -21 -31 -42 -33 -67
-7 l-21 23 0 -26 c0 -27 -37 -89 -57 -96 -22 -7 -14 53 12 92 l24 36 -33 0
c-42 0 -61 21 -51 57 6 25 8 26 19 11 21 -28 60 -27 76 2 15 28 -3 58 -43 68
-22 6 -31 14 -29 25 3 18 -42 42 -59 31 -11 -6 -39 13 -39 27 0 16 87 10 100
-6z m-245 -51 c12 -12 14 -25 9 -48 -4 -17 -8 -39 -8 -48 0 -24 -13 -23 -26 3
-9 16 -14 18 -26 8 -11 -9 -14 -7 -14 10 0 16 -6 21 -24 21 -14 0 -28 5 -31
10 -3 6 3 10 14 10 11 0 28 11 37 25 19 29 45 32 69 9z m615 -244 c12 -12 18
-25 15 -31 -4 -5 1 -21 9 -34 16 -24 15 -25 -4 -25 -11 0 -20 5 -20 10 0 6 -4
10 -10 10 -5 0 -10 -7 -10 -15 0 -8 -4 -15 -10 -15 -5 0 -10 7 -10 15 0 17
-16 20 -25 5 -3 -5 -14 -10 -23 -10 -12 0 -13 3 -4 12 7 7 12 25 12 41 0 29
23 56 48 57 6 0 21 -9 32 -20z" />
        <path d="M1787 2944 c-5 -9 -42 -211 -58 -319 -5 -33 -11 -69 -13 -80 -15 -73
-36 -198 -33 -201 2 -2 30 -9 61 -15 32 -6 74 -19 93 -30 29 -16 34 -17 30 -5
-6 15 9 66 37 129 31 68 55 127 111 270 32 82 63 154 70 161 11 10 -8 20 -98
49 -121 40 -191 54 -200 41z" />
        <path d="M2287 2728 c-66 -108 -122 -194 -129 -196 -4 -2 -8 -10 -8 -18 0 -8
-4 -14 -10 -14 -5 0 -10 -5 -10 -10 0 -11 -138 -233 -160 -257 -8 -10 -7 -13
2 -13 13 0 37 -17 97 -67 31 -27 46 -29 63 -7 7 8 21 23 32 32 18 17 157 158
300 304 l78 81 -53 48 c-30 27 -57 49 -61 49 -3 0 -25 16 -49 35 -65 55 -76
59 -92 33z" />
        <path d="M2636 2350 c-16 -17 -33 -30 -37 -30 -4 0 -29 -18 -55 -40 -27 -22
-53 -40 -57 -40 -5 0 -19 -9 -31 -19 -73 -66 -105 -91 -114 -91 -6 0 -12 -3
-14 -7 -2 -6 -97 -81 -136 -109 -2 -1 6 -12 17 -23 11 -11 27 -36 35 -56 8
-19 20 -35 25 -35 6 0 11 -7 11 -15 0 -12 7 -14 28 -9 15 4 29 10 32 13 5 7
136 71 145 71 2 0 35 14 72 31 38 17 91 41 118 54 28 12 76 34 107 49 l57 26
-31 68 c-16 37 -39 76 -49 88 -10 11 -19 24 -19 29 0 15 -51 75 -63 75 -7 0
-25 -14 -41 -30z" />
        <path d="M2865 1909 c-16 -5 -68 -20 -115 -34 -47 -13 -134 -38 -195 -55 -60
-18 -136 -39 -167 -47 -32 -9 -58 -19 -58 -24 0 -4 7 -39 15 -78 8 -39 12 -76
10 -83 -4 -10 16 -12 97 -6 57 4 175 9 263 13 88 3 179 8 203 11 l42 5 -4 42
c-12 110 -19 153 -27 169 -5 9 -9 28 -9 42 0 28 -9 56 -19 55 -3 0 -19 -5 -36
-10z" />
        <path d="M2354 1443 c3 -8 -1 -44 -9 -79 -8 -36 -15 -69 -15 -73 0 -7 53 -34
70 -36 3 -1 32 -9 65 -20 33 -10 65 -20 70 -21 71 -19 311 -100 313 -106 2 -5
14 -8 26 -8 19 0 24 11 44 98 12 53 24 122 27 154 l5 56 -75 7 c-41 4 -94 9
-117 10 -24 2 -99 8 -168 14 -239 21 -242 21 -236 4z" />
        <path d="M2263 1133 c-15 -33 -31 -60 -56 -87 -26 -30 -40 -56 -28 -56 5 0 29
-16 53 -36 78 -64 156 -130 203 -172 11 -9 38 -31 60 -47 21 -17 46 -37 55
-45 28 -27 70 -55 81 -55 13 0 105 130 143 201 30 57 35 52 -101 116 -48 23
-89 46 -91 50 -2 4 -10 8 -18 8 -16 0 -56 20 -65 33 -3 5 -12 9 -20 11 -18 3
-112 48 -119 56 -3 3 -20 12 -37 19 -18 8 -33 17 -33 22 0 19 -16 8 -27 -18z" />
        <path d="M2060 882 c-25 -23 -48 -42 -51 -42 -14 0 -60 -43 -52 -49 4 -3 16
-22 26 -41 9 -19 30 -57 47 -85 16 -27 36 -63 45 -80 25 -51 61 -112 84 -143
12 -17 29 -48 39 -69 10 -21 24 -48 32 -60 l14 -21 45 31 c25 17 50 37 54 44
4 7 12 13 17 13 5 0 19 10 32 23 13 12 40 35 61 52 33 25 36 31 23 41 -9 6
-16 14 -16 17 0 4 -21 29 -47 56 -27 26 -91 95 -143 152 -52 57 -109 117 -127
134 -17 16 -33 39 -35 49 -3 17 -9 14 -48 -22z" />
        <path d="M1775 720 c-33 -11 -70 -20 -82 -20 -12 0 -24 -4 -27 -8 -5 -9 6 -99
29 -237 8 -49 22 -135 30 -190 22 -141 20 -138 63 -131 33 4 90 20 202 55 63
20 65 24 42 72 -18 38 -30 67 -73 177 -5 13 -9 31 -9 42 0 10 -6 25 -13 32 -7
7 -24 40 -37 73 -12 33 -29 74 -36 92 -8 17 -14 38 -14 47 0 20 -1 20 -75 -4z" />
    </g>
</svg>